<svg width="73" height="62" viewBox="0 0 73 62" fill="none" xmlns="http://www.w3.org/2000/svg">
<path d="M68.7184 0.039492H0V7.27301H8.31854L20.1815 39.8238C20.9277 41.9344 22.3084 43.7625 24.1344 45.0575C25.9604 46.3525 28.1422 47.051 30.3808 47.0573H61.4849V39.8238H30.3808C29.6375 39.8235 28.9123 39.5942 28.304 39.1671C27.6957 38.7399 27.2337 38.1358 26.981 37.4368L25.3173 32.5903H58.8808C60.4506 32.588 61.977 32.0752 63.2297 31.1292C64.4824 30.1831 65.3933 28.8553 65.825 27.346L72.3351 4.63277C72.4822 4.15783 72.5297 3.65768 72.4747 3.16355C72.4198 2.66943 72.2635 2.19193 72.0158 1.76089C71.768 1.32985 71.4341 0.954524 71.0347 0.658344C70.6354 0.362164 70.1793 0.151495 69.6949 0.039492C69.3715 -0.013164 69.0418 -0.013164 68.7184 0.039492ZM58.7723 25.3568H22.6047L16.0222 7.27301H63.9081L58.7723 25.3568Z" fill="#BBBBBB"/>
<path d="M30.7425 61.5244C33.7387 61.5244 36.1677 59.0954 36.1677 56.0992C36.1677 53.103 33.7387 50.6741 30.7425 50.6741C27.7463 50.6741 25.3174 53.103 25.3174 56.0992C25.3174 59.0954 27.7463 61.5244 30.7425 61.5244Z" fill="#BBBBBB"/>
<path d="M52.443 61.5244C55.4392 61.5244 57.8681 59.0954 57.8681 56.0992C57.8681 53.103 55.4392 50.6741 52.443 50.6741C49.4467 50.6741 47.0178 53.103 47.0178 56.0992C47.0178 59.0954 49.4467 61.5244 52.443 61.5244Z" fill="#BBBBBB"/>
</svg>
